HIERARCHY
ROOT Hips
{
 OFFSET 0.000000 0.000000 0.000000
 CHANNELS 6 Xposition Yposition Zposition Yrotation Xrotation Zrotation
 JOINT Chest
 {
  OFFSET 0.000000 9.585900 0.002600
  CHANNELS 3 Yrotation Xrotation Zrotation
  JOINT Chest2
  {
   OFFSET 0.000000 9.601200 -0.005300
   CHANNELS 3 Yrotation Xrotation Zrotation
   JOINT Chest3
   {
    OFFSET 0.000000 9.561800 0.000000
    CHANNELS 3 Yrotation Xrotation Zrotation
    JOINT Chest4
    {
     OFFSET 0.000000 9.552100 0.000000
     CHANNELS 3 Yrotation Xrotation Zrotation
     JOINT Neck
     {
      OFFSET 0.000000 14.453000 0.000000
      CHANNELS 3 Yrotation Xrotation Zrotation
      JOINT Head
      {
       OFFSET 0.000000 8.936500 -0.011300
       CHANNELS 3 Yrotation Xrotation Zrotation
       End Site
       {
        OFFSET 0.000000 17.073600 -0.006000
       }
      }
     }
     JOINT RightCollar
     {
      OFFSET -2.921100 9.558500 0.000000
      CHANNELS 3 Yrotation Xrotation Zrotation
      JOINT RightShoulder
      {
       OFFSET -13.519700 0.000000 0.000000
       CHANNELS 3 Yrotation Xrotation Zrotation
       JOINT RightElbow
       {
        OFFSET 0.000000 -29.696600 0.000000
        CHANNELS 3 Yrotation Xrotation Zrotation
        JOINT RightWrist
        {
         OFFSET 0.000000 -24.004700 0.000000
         CHANNELS 3 Yrotation Xrotation Zrotation
         End Site
         {
          OFFSET 0.000000 -17.728500 0.000000
         }
        }
       }
      }
     }
     JOINT LeftCollar
     {
      OFFSET 2.921100 9.558500 0.000000
      CHANNELS 3 Yrotation Xrotation Zrotation
      JOINT LeftShoulder
      {
       OFFSET 13.519700 0.000000 0.000000
       CHANNELS 3 Yrotation Xrotation Zrotation
       JOINT LeftElbow
       {
        OFFSET 0.000000 -29.696600 0.000000
        CHANNELS 3 Yrotation Xrotation Zrotation
        JOINT LeftWrist
        {
         OFFSET 0.000000 -24.004700 0.000000
         CHANNELS 3 Yrotation Xrotation Zrotation
         End Site
         {
          OFFSET 0.000000 -17.728500 0.000000
         }
        }
       }
      }
     }
    }
   }
  }
 }
 JOINT RightHip
 {
  OFFSET -7.771700 -0.012900 -0.001300
  CHANNELS 3 Yrotation Xrotation Zrotation
  JOINT RightKnee
  {
   OFFSET 0.000000 -40.869800 0.001200
   CHANNELS 3 Yrotation Xrotation Zrotation
   JOINT RightAnkle
   {
    OFFSET 0.000000 -39.717900 0.002100
    CHANNELS 3 Yrotation Xrotation Zrotation
    JOINT RightToe
    {
     OFFSET 0.000000 -4.965400 11.033500
     CHANNELS 3 Yrotation Xrotation Zrotation
     End Site
     {
      OFFSET 0.000000 -1.423100 5.872300
     }
    }
   }
  }
 }
 JOINT LeftHip
 {
  OFFSET 7.771700 -0.012900 -0.001300
  CHANNELS 3 Yrotation Xrotation Zrotation
  JOINT LeftKnee
  {
   OFFSET 0.000000 -40.869800 0.001200
   CHANNELS 3 Yrotation Xrotation Zrotation
   JOINT LeftAnkle
   {
    OFFSET 0.000000 -39.717900 0.002100
    CHANNELS 3 Yrotation Xrotation Zrotation
    JOINT LeftToe
    {
     OFFSET 0.000000 -4.965400 11.033500
     CHANNELS 3 Yrotation Xrotation Zrotation
     End Site
     {
      OFFSET 0.000000 -1.423100 5.872300
     }
    }
   }
  }
 }
}
MOTION
Frames: 7
Frame Time: 0.008333
0.000000 85.388000 0.000000 0.000000 -5.767877 0.000000 0.000000 11.653817 0.000000 0.000000 -5.885947 0.000000 0.000000 -0.000000 0.000000 0.000000 -0.000000 0.000000 0.000000 12.528835 0.000000 0.000000 0.711642 0.000000 0.000000 -0.000000 0.000000 0.000000 0.000000 -90.000000 0.000000 -2.309062 0.000000 0.000000 2.309062 0.000000 0.000000 -0.000000 0.000000 0.000000 -0.000000 90.000000 0.000000 -2.309062 0.000000 0.000000 2.309062 0.000000 0.000000 8.520406 0.000000 0.000000 1.905762 0.000000 -0.000000 -4.658285 0.000000 0.000000 -0.000000 0.000000 0.000000 8.520406 0.000000 0.000000 1.905762 0.000000 -0.000000 -4.658285 0.000000 0.000000 -0.000000 0.000000
-4.941827 55.464125 29.269727 178.180509 -27.920176 -11.580917 0.200901 13.774687 5.571840 -0.173117 7.764497 2.152796 -0.174426 9.706949 2.717325 -0.171293 7.767416 2.187754 -2.433595 24.166543 3.132316 -3.366358 0.495560 3.967327 -1.087147 1.535652 -6.114807 -21.001876 -0.542592 2.750092 -89.520758 -52.226673 119.698088 6.537053 -2.697391 17.872599 -9.110762 -0.180812 -3.420345 -10.742769 -10.959163 0.755553 -152.174347 -72.270044 144.092558 22.993670 -13.909479 -0.125370 -20.065817 -37.339063 9.515102 22.277620 86.456249 19.288706 1.164422 -16.957158 -0.263325 -0.024758 0.518277 0.003658 -17.529839 -49.546539 20.426906 171.714896 78.871079 167.121238 -1.238352 -16.652787 1.138514 -0.883323 -2.478261 -0.414527
-4.938790 55.467870 29.272624 178.166104 -27.926517 -11.593005 0.204034 13.777355 5.601526 -0.192392 7.765257 2.212242 -0.173740 9.712543 2.755525 -0.173590 7.769989 2.189286 -2.291465 23.812132 2.924576 -3.158609 0.047428 3.701743 -1.261505 1.628174 -6.111901 -20.828372 -0.811639 2.859978 -89.527260 -52.740457 119.477207 6.872288 -2.317983 17.527573 -9.046495 -0.059598 -3.386457 -10.144562 -10.587280 0.807116 -152.600574 -72.516421 144.828273 23.097816 -14.604130 0.219289 -20.070985 -37.321148 9.529276 22.187636 86.437205 19.206292 1.207926 -16.952811 -0.293431 -0.026619 0.518640 0.003954 -17.560544 -49.535386 20.436413 171.624373 78.864171 167.049081 -1.225837 -16.643903 1.109092 -0.879862 -2.489344 -0.414903
-4.935044 55.471837 29.277183 178.157766 -27.924556 -11.610671 0.186926 13.771202 5.653461 -0.207714 7.767303 2.254907 -0.175263 9.715524 2.768499 -0.177893 7.771889 2.212715 -2.166289 23.425488 2.689379 -2.963320 -0.436337 3.410764 -1.410346 1.715456 -6.097731 -20.653431 -1.073641 2.948464 -89.361589 -53.046437 119.153876 7.138116 -2.014240 17.292329 -8.961558 0.064932 -3.363054 -9.549372 -10.203230 0.863971 -152.884020 -72.698620 145.447405 23.114099 -15.228483 0.727168 -20.084685 -37.309529 9.555733 21.983241 86.418555 19.012699 1.219744 -16.940621 -0.310749 -0.034956 0.520226 0.005611 -17.607392 -49.531881 20.444604 171.483771 78.856542 166.940478 -1.218718 -16.633005 1.059629 -0.864527 -2.499375 -0.408960
-4.931203 55.476688 29.281602 178.103468 -27.934203 -11.604728 0.202573 13.770121 5.705689 -0.212951 7.766256 2.278332 -0.183066 9.715369 2.795727 -0.184463 7.771719 2.234585 -2.052271 23.013630 2.432625 -2.775500 -0.946478 3.099887 -1.532041 1.795235 -6.074356 -20.482854 -1.316562 3.023290 -89.038062 -53.154928 118.738800 7.326713 -1.803541 17.179210 -8.868096 0.188401 -3.346798 -8.939492 -9.799606 0.919668 -153.052589 -72.819129 145.964141 23.066526 -15.797287 1.342060 -20.057541 -37.299380 9.579456 21.923210 86.395656 18.960761 1.235263 -16.924799 -0.331761 -0.053089 0.520303 0.005026 -17.613766 -49.523284 20.468947 171.384148 78.843837 166.842854 -1.196242 -16.604490 1.043330 -0.881601 -2.534407 -0.415970
-4.922727 55.485246 29.282209 178.060475 -27.972631 -11.628083 0.192763 13.796957 5.810243 -0.201243 7.768433 2.265370 -0.192500 9.713056 2.820612 -0.192270 7.769828 2.254600 -1.944436 22.585007 2.160070 -2.591089 -1.472144 2.774586 -1.626340 1.861396 -6.046232 -20.316517 -1.530728 3.092621 -88.599485 -53.106808 118.261436 7.423162 -1.686712 17.172850 -8.773342 0.303667 -3.336406 -8.299763 -9.374095 0.968488 -153.209664 -72.896814 146.461397 22.974765 -16.314189 1.992731 -20.038763 -37.243830 9.620084 21.824052 86.364430 18.871817 1.239582 -16.904007 -0.348323 -0.043408 0.511670 -0.001645 -17.686316 -49.484680 20.511380 171.145252 78.812583 166.607179 -1.104840 -16.515658 1.001971 -0.947049 -2.628159 -0.448767
-4.917126 55.490911 29.287554 178.046853 -27.969059 -11.644363 0.155727 13.790849 5.872191 -0.201009 7.766591 2.273001 -0.180527 9.715740 2.800257 -0.216545 7.758914 2.320429 -1.840195 22.148522 1.876596 -2.408647 -2.002250 2.439832 -1.696116 1.906114 -6.017329 -20.161462 -1.706723 3.161649 -88.095474 -52.953437 117.761385 7.422123 -1.645627 17.233166 -8.683825 0.407524 -3.325616 -7.616222 -8.927737 0.997783 -153.455095 -72.947652 147.020936 22.845760 -16.783460 2.622860 -20.051100 -37.232505 9.654285 21.809081 86.337937 18.865704 1.221679 -16.887345 -0.359234 -0.043708 0.507976 -0.005523 -17.741369 -49.479238 20.515189 170.959940 78.805679 166.464844 -1.093033 -16.505292 0.924322 -0.923395 -2.636833 -0.438057
